<svg width="37" height="25" viewBox="0 0 37 25" fill="none" xmlns="http://www.w3.org/2000/svg">
<g id="Gaio Avatar">
<g id="Group">
<g id="Group_2">
<path id="Vector" d="M12.7382 10.2241H0.324219V15.248H12.7382V10.2241Z" fill="#E3AC83"/>
<path id="Vector_2" d="M2.36784 0.735233L0.929688 5.53955L12.8012 9.24646L14.2394 4.44214L2.36784 0.735233Z" fill="#E3AC83"/>
<path id="Vector_3" d="M12.8012 16.2238L0.929688 19.9307L2.36784 24.735L14.2394 21.0281L12.8012 16.2238Z" fill="#E3AC83"/>
</g>
<g id="Group_3">
<path id="Vector_4" d="M29.7937 15.0851H31.4029V17.328C30.4614 18.0241 29.3259 18.4029 28.151 18.4029C25.0908 18.4029 22.6014 15.8603 22.6014 12.7348C22.6014 9.6094 25.0908 7.0668 28.151 7.0668C29.6332 7.0668 31.0275 7.65673 32.0753 8.72686L35.5536 5.17431C33.5759 3.15557 30.9478 2.04297 28.1522 2.04297C22.3795 2.04297 17.6836 6.83909 17.6836 12.7348C17.6836 18.6306 22.3795 23.4267 28.1522 23.4267C30.7352 23.4267 33.2166 22.4581 35.1378 20.6977C35.3365 20.516 35.5652 20.2812 35.6091 20.2364L36.323 19.5013V10.0613H29.7949V15.0851H29.7937Z" fill="white"/>
</g>
</g>
</g>
</svg>
