<svg xmlns="http://www.w3.org/2000/svg" xml:space="preserve" fill-rule="evenodd" clip-rule="evenodd" image-rendering="optimizeQuality" shape-rendering="geometricPrecision" text-rendering="geometricPrecision" viewBox="0 0 4800000 4800000">
<style>
    .dynamic-fill {
      fill: #525252;
    }
    @media (prefers-color-scheme: dark) {
      .dynamic-fill {
        fill: #fff;
      }
    }
  </style>
  <path fill="none" d="M0 0h4800000v4800000H0z"/>
  <g fill-rule="nonzero">
    <path fill="#e3ac83" d="M1686200 2078500H100000v642900h1584900v-642900h1300zM360800 866900l-184100 613500 1517200 472900 184000-613500L360800 866900zm1333100 1978500L176700 3319600l184100 613500 1517100-472900-184000-613500v-1300z"/>
    <path class="dynamic-fill" fill="#525252" d="M3866700 2701000h204500v286300c-120100 88700-265600 136700-415000 136700h-400c-393200-4800-709400-325000-709400-718200v-11600c0-393200 316200-713400 709400-718200 189100 0 368000 75400 502200 212100l443500-455000c-247700-255700-588900-400000-945100-400000h-600c-741500 8900-1338300 613000-1338300 1354600v12900c0 754000 600700 1366300 1338300 1366300 331000 0 647900-124000 893300-348900 25600-23000 55000-53700 60100-58800l90800-94600V2058000l-833300 100v642900z"/>
  </g>
</svg>